<svg width="743" height="749" viewBox="0 0 743 749" fill="none" xmlns="http://www.w3.org/2000/svg">
<path d="M371.5 739C571.231 739 733 575.727 733 374.5C733 173.273 571.231 10 371.5 10C171.769 10 10 173.273 10 374.5C10 575.727 171.769 739 371.5 739Z" fill="url(#paint0_linear_48_18)" stroke="#242833" stroke-width="20"/>
<path d="M380.5 390.5C266.979 345.578 203.5 315.5 107.5 244.5C90.045 313.773 83.1227 353.509 85.5 429L371 581.5L690 420.5C690 341 670.5 275 653.5 244.5L380.5 390.5Z" fill="#060709" stroke="#242833"/>
<path d="M314 400C314 450.258 295.196 491 272 491C248.804 491 230 450.258 230 400C230 349.742 272 324.5 272 353C232.5 324 314 349.742 314 400Z" fill="#CED3D9"/>
<path d="M451 400.156C451 450.414 469.804 491.157 493 491.157C516.196 491.157 535 450.414 535 400.156C535 349.899 472 319.5 472 348C483 328.5 451 349.899 451 400.156Z" fill="#CED3D9"/>
<defs>
<linearGradient id="paint0_linear_48_18" x1="20" y1="374" x2="723" y2="374" gradientUnits="userSpaceOnUse">
<stop stop-color="#989EA6"/>
<stop offset="1" stop-color="#CED3D9"/>
</linearGradient>
</defs>
</svg>
